<svg xmlns="http://www.w3.org/2000/svg" width="24" height="24" viewBox="0 0 24 24" fill="none" stroke="#1976D2" stroke-width="2" stroke-linecap="round" stroke-linejoin="round">
  <path d="M3 14h4a1 1 0 0 0 1-1v-2a1 1 0 0 0-1-1H3"></path>
  <path d="M7 10V4a1 1 0 0 0-1-1H3"></path>
  <path d="M11 6h4a1 1 0 0 1 1 1v6a1 1 0 0 1-1 1h-4a1 1 0 0 1-1-1V7a1 1 0 0 1 1-1Z"></path>
  <path d="M20 14h1a1 1 0 0 1 1 1v1a1 1 0 0 1-1 1h-1a1 1 0 0 1-1-1v-1a1 1 0 0 1 1-1Z"></path>
  <path d="M18 18h1a1 1 0 0 1 1 1v1a1 1 0 0 1-1 1h-1a1 1 0 0 1-1-1v-1a1 1 0 0 1 1-1Z"></path>
  <path d="M18 14h-3"></path>
  <path d="M18 18h-8a1 1 0 0 1-1-1v-2a1 1 0 0 1 1-1h2"></path>
</svg>